<svg width="215" height="33" viewBox="0 0 215 33" fill="none" xmlns="http://www.w3.org/2000/svg">
<path fill-rule="evenodd" clip-rule="evenodd" d="M4.84692 12.1104C5.56759 11.4466 6.39214 10.88 7.31887 10.412C8.85886 9.60732 10.5651 9.21064 12.4233 9.21061C14.5945 9.21061 16.5598 9.73572 18.2996 10.7973C20.0302 11.8268 21.3883 13.2445 22.3658 15.0372L22.5488 15.3772C23.4356 17.0923 23.8733 18.9997 23.8733 21.0853C23.8732 23.3387 23.3464 25.3763 22.2797 27.1801C21.2451 28.9752 19.819 30.4037 18.0106 31.4567C16.2152 32.4902 14.1683 33 11.896 33C9.67437 33 7.65804 32.4907 5.86534 31.4587L5.85851 31.454C4.08216 30.4029 2.65978 28.9934 1.5997 27.2323L1.59287 27.2208C0.556066 25.4218 0.0284477 23.4146 0 21.2147V0H4.84692V12.1104ZM11.896 13.6544C10.5585 13.6544 9.34465 13.9837 8.23962 14.6411C7.16147 15.2728 6.31248 16.1475 5.69526 17.2734C5.0797 18.3963 4.76632 19.6621 4.76632 21.0853C4.76634 22.5349 5.07941 23.8114 5.69185 24.9312C6.30936 26.0332 7.15805 26.9112 8.24577 27.5729C9.34919 28.2279 10.5609 28.5562 11.896 28.5562C13.2927 28.5562 14.5166 28.2243 15.5872 27.5729L15.5933 27.5695C16.7072 26.9069 17.5661 26.0292 18.1814 24.9312C18.8195 23.8118 19.1479 22.5328 19.1479 21.0853C19.1479 19.6668 18.8226 18.4047 18.1835 17.2835L18.178 17.2734C17.5629 16.1514 16.7074 15.2799 15.6029 14.6472L15.5947 14.6424L15.5872 14.6377C14.5166 13.9863 13.2927 13.6544 11.896 13.6544Z" fill="black"/>
<path fill-rule="evenodd" clip-rule="evenodd" d="M38.8143 9.21061C41.0866 9.21061 43.1308 9.71833 44.9262 10.7519C46.7109 11.7793 48.1237 13.1958 49.1577 14.9898C50.1968 16.7927 50.7229 18.841 50.7512 21.1165V21.1253C50.7512 21.727 50.7133 22.3133 50.6399 22.884H31.7324C31.8842 23.6329 32.1366 24.3272 32.4879 24.9698C33.1299 26.0683 33.9879 26.9436 35.0684 27.6041C36.1705 28.2351 37.4133 28.5562 38.8143 28.5562C40.2132 28.5562 41.4383 28.2365 42.5089 27.6108C43.3585 27.0933 44.0609 26.4431 44.6222 25.6578H49.9439C49.7357 26.1964 49.4884 26.718 49.1987 27.2208C48.1638 29.0162 46.7359 30.4315 44.9255 31.458C43.1301 32.4915 41.0865 33 38.8143 33C36.5165 33 34.4472 32.4925 32.6258 31.4607C30.8411 30.4333 29.4236 29.0147 28.3896 27.2208C27.3496 25.4163 26.837 23.3783 26.837 21.1253C26.837 18.8472 27.3489 16.7956 28.3896 14.9898C29.4236 13.1959 30.8364 11.7793 32.6211 10.7519C34.4424 9.72009 36.5164 9.21061 38.8143 9.21061ZM38.8143 13.6544C37.4177 13.6544 36.1776 13.9861 35.0766 14.6411C33.9993 15.2723 33.1356 16.1465 32.4913 17.2727C32.1301 17.9316 31.874 18.6457 31.7229 19.4167H45.8244C45.6735 18.6458 45.4172 17.9323 45.056 17.2734C44.4387 16.1473 43.5933 15.2755 42.515 14.6438L42.5055 14.6377C41.4348 13.9863 40.211 13.6544 38.8143 13.6544Z" fill="black"/>
<path fill-rule="evenodd" clip-rule="evenodd" d="M114.564 12.1104C115.282 11.4489 116.103 10.8838 117.026 10.4167C118.569 9.60881 120.278 9.21061 122.14 9.21061C124.311 9.21062 126.277 9.73565 128.016 10.7973C129.747 11.8268 131.104 13.2446 132.082 15.0372L132.266 15.3772C133.152 17.0923 133.59 18.9998 133.59 21.0853C133.59 23.3388 133.063 25.3763 131.996 27.1801C130.961 28.9751 129.536 30.4037 127.727 31.4567C125.932 32.4902 123.885 33 121.613 33C119.391 33 117.375 32.4906 115.582 31.4587L115.575 31.454C113.798 30.403 112.377 28.9933 111.317 27.2323L111.31 27.2208C110.273 25.4218 109.745 23.4146 109.717 21.2147V0H114.564V12.1104ZM121.613 13.6544C120.275 13.6544 119.061 13.9838 117.956 14.6411C116.878 15.2728 116.029 16.1475 115.412 17.2734C114.797 18.3963 114.482 19.6621 114.482 21.0853C114.483 22.535 114.796 23.8114 115.409 24.9312C116.026 26.0332 116.875 26.9112 117.963 27.5729C119.066 28.2278 120.278 28.5562 121.613 28.5562C123.009 28.5562 124.233 28.2242 125.303 27.5729L125.309 27.5695C126.423 26.9069 127.282 26.0293 127.898 24.9312C128.536 23.8118 128.865 22.5328 128.865 21.0853C128.865 19.6668 128.539 18.4047 127.9 17.2835L127.895 17.2734C127.28 16.1514 126.424 15.2799 125.32 14.6472L125.303 14.6377C124.233 13.9864 123.009 13.6544 121.613 13.6544Z" fill="black"/>
<path fill-rule="evenodd" clip-rule="evenodd" d="M148.531 9.21061C150.751 9.21065 152.766 9.73316 154.557 10.7898C156.367 11.8152 157.794 13.2296 158.829 15.023L159.023 15.3637C159.963 17.0812 160.441 19.0036 160.467 21.1165V32.7989H155.579V30.1036C155.008 30.6394 154.375 31.1171 153.679 31.5332C152.019 32.5151 150.131 33 148.044 33C145.873 33 143.908 32.4887 142.167 31.4533L142.16 31.4492C140.433 30.3933 139.065 28.964 138.061 27.1734C137.052 25.3714 136.554 23.3497 136.554 21.1253C136.554 18.8722 137.066 16.8343 138.106 15.0298L138.111 15.0223C139.171 13.2321 140.609 11.8193 142.416 10.7939C144.236 9.73422 146.28 9.21061 148.531 9.21061ZM148.531 13.6544C147.166 13.6544 145.941 13.9832 144.839 14.637C143.753 15.298 142.889 16.1906 142.243 17.3242C141.608 18.4134 141.279 19.6775 141.279 21.1253C141.279 22.5438 141.604 23.8059 142.243 24.9271C142.887 26.0568 143.748 26.9458 144.829 27.6061C145.932 28.2369 147.161 28.5562 148.531 28.5562C149.931 28.5562 151.141 28.2358 152.181 27.6129L152.381 27.4869C153.37 26.8418 154.152 25.995 154.732 24.9372L154.737 24.9271C155.376 23.8059 155.702 22.5438 155.702 21.1253C155.702 19.6775 155.375 18.4188 154.741 17.3296L154.736 17.3214L154.732 17.314C154.113 16.1858 153.265 15.2972 152.181 14.6377L152.175 14.6336C151.135 13.9861 149.928 13.6544 148.531 13.6544Z" fill="black"/>
<path d="M172.923 9.21061C174.809 9.21062 176.479 9.53108 177.915 10.1966C179.242 10.7877 180.347 11.589 181.212 12.6061L181.382 12.8126C181.773 13.306 181.963 13.8771 181.896 14.4941C181.851 15.1626 181.474 15.6728 180.909 16.009C180.393 16.3481 179.798 16.4421 179.177 16.3395C178.563 16.232 178.027 15.9391 177.602 15.4822C176.994 14.8318 176.313 14.3734 175.557 14.0926L175.54 14.0858C174.772 13.7766 173.877 13.6138 172.842 13.6138C171.524 13.6138 170.535 13.8785 169.818 14.3451L169.812 14.3492L169.805 14.3533C169.101 14.7894 168.835 15.2839 168.835 15.8567C168.835 16.3185 168.949 16.6821 169.15 16.9781C169.373 17.2686 169.8 17.5906 170.515 17.9106C171.262 18.2057 172.356 18.49 173.819 18.7537C175.885 19.1091 177.564 19.6228 178.822 20.3187C180.071 20.9688 181.019 21.7644 181.591 22.7336C182.176 23.6789 182.466 24.7304 182.466 25.8711C182.466 27.2732 182.056 28.5325 181.232 29.6228C180.443 30.676 179.337 31.4956 177.949 32.0973C176.543 32.7073 174.902 33 173.044 33C171.291 33 169.579 32.7194 167.911 32.1589L167.904 32.1569L167.898 32.1542C166.244 31.5605 164.885 30.7143 163.848 29.5991C163.391 29.1076 163.184 28.5059 163.262 27.8418C163.339 27.1947 163.656 26.6548 164.174 26.251L164.187 26.2415C164.728 25.8393 165.338 25.6249 165.991 25.7059C166.529 25.7694 167.005 25.9763 167.394 26.3282L167.556 26.4887L167.566 26.4989L167.575 26.5097C168.081 27.103 168.803 27.6066 169.776 28.0029C170.739 28.3686 171.812 28.5562 173.004 28.5562C174.818 28.5562 176.003 28.2516 176.69 27.7639L176.826 27.6616C177.477 27.149 177.76 26.5796 177.781 25.9388C177.777 25.303 177.481 24.739 176.742 24.2282L176.734 24.2221C176.006 23.7034 174.654 23.2407 172.564 22.8955C169.781 22.4311 167.633 21.6376 166.222 20.4467L166.217 20.442C164.835 19.2509 164.109 17.7792 164.109 16.0578C164.109 14.5562 164.529 13.2527 165.405 12.1977C166.247 11.1843 167.339 10.4338 168.659 9.93928C169.987 9.45279 171.413 9.21061 172.923 9.21061Z" fill="black"/>
<path d="M205.457 9.21061C207.343 9.21064 209.014 9.53106 210.449 10.1966C211.777 10.7877 212.882 11.589 213.747 12.6061L213.917 12.8126C214.316 13.3169 214.507 13.9021 214.427 14.5348C214.37 15.1839 213.997 15.6794 213.443 16.009C212.928 16.3481 212.332 16.4421 211.711 16.3395C211.097 16.232 210.561 15.9392 210.135 15.4822C209.528 14.8319 208.847 14.3733 208.092 14.0926L208.074 14.0858C207.306 13.7766 206.411 13.6138 205.376 13.6138C204.058 13.6138 203.069 13.8784 202.352 14.3451L202.345 14.3492L202.339 14.3533C201.635 14.7894 201.369 15.2839 201.369 15.8567C201.369 16.3185 201.483 16.6821 201.684 16.9781C201.908 17.2685 202.334 17.5907 203.049 17.9106C203.796 18.2057 204.889 18.4899 206.353 18.7537C208.41 19.1076 210.083 19.6186 211.339 20.3099L211.572 20.4345C212.714 21.0627 213.587 21.8212 214.126 22.7336C214.71 23.6789 215 24.7304 215 25.8711C215 27.2731 214.59 28.5325 213.766 29.6228C212.977 30.676 211.871 31.4956 210.484 32.0973C209.077 32.7073 207.436 33 205.579 33C203.825 33 202.113 32.7193 200.446 32.1589L200.439 32.1569L200.432 32.1542C198.778 31.5605 197.419 30.7142 196.383 29.5991C195.926 29.1076 195.718 28.5059 195.797 27.8418C195.874 27.1947 196.19 26.6548 196.709 26.251L196.721 26.2415C197.262 25.8393 197.872 25.6249 198.526 25.7059C199.064 25.7695 199.539 25.9763 199.929 26.3282L200.09 26.4887L200.099 26.4989L200.109 26.5097C200.615 27.1029 201.337 27.6067 202.31 28.0029C203.272 28.3686 204.346 28.5562 205.538 28.5562C207.355 28.5562 208.541 28.2508 209.227 27.7619C209.969 27.2254 210.29 26.626 210.314 25.9463C210.313 25.3074 210.018 24.7409 209.276 24.2282L209.268 24.2221C208.54 23.7034 207.188 23.2407 205.099 22.8955C202.316 22.4311 200.168 21.6375 198.756 20.4467L198.75 20.442C197.369 19.251 196.644 17.7791 196.644 16.0578C196.644 14.5562 197.063 13.2527 197.939 12.1977C198.781 11.1843 199.873 10.4338 201.194 9.93928C202.521 9.4528 203.948 9.21061 205.457 9.21061Z" fill="black"/>
<path d="M66.1677 9.16998C68.1638 9.16999 69.9716 9.59523 71.5733 10.4614C73.205 11.3021 74.4865 12.5483 75.4134 14.1819C76.3816 15.84 76.8465 17.8441 76.8465 20.1603V30.4165V32.7989H74.4435H71.9995V30.4165V20.1603C71.9995 18.6058 71.7033 17.4147 71.1676 16.5372L71.1621 16.5284L71.1567 16.519C70.629 15.5917 69.908 14.9149 68.9852 14.4691L68.9784 14.4657L68.9723 14.4623C68.0294 13.9829 66.9376 13.7343 65.6806 13.7343C64.5065 13.7343 63.4661 13.9694 62.5455 14.4257L62.5386 14.4291C61.64 14.8626 60.9381 15.4562 60.4157 16.2095L60.4096 16.2176C59.9052 16.9222 59.6459 17.745 59.6459 18.7124V30.4165V32.7989H57.2429H54.799V30.4165V11.8348V9.41174H57.2429H59.6083V11.358C59.6083 11.358 60.5326 10.6993 61.0448 10.4214C62.5889 9.58383 64.3016 9.16998 66.1677 9.16998Z" fill="black"/>
<path d="M188.806 9.41174H191.209V11.8348V30.3758V32.7989H188.806H186.362V30.3758V11.8348V9.41174H188.806Z" fill="black"/>
<path d="M188.765 0.763883C189.562 0.763923 190.268 1.04366 190.852 1.58262C191.495 2.14882 191.818 2.8905 191.818 3.75034C191.818 4.57697 191.515 5.30854 190.937 5.91535L190.93 5.9228L190.923 5.92957C190.333 6.51515 189.6 6.81666 188.765 6.8167C187.931 6.8167 187.198 6.51518 186.608 5.92957L186.6 5.9228L186.593 5.91535C186.015 5.30856 185.713 4.57688 185.713 3.75034C185.713 2.90395 186.012 2.16626 186.623 1.59616L186.63 1.58939L186.637 1.58262C187.245 1.04658 187.963 0.763883 188.765 0.763883Z" fill="black"/>
<path fill-rule="evenodd" clip-rule="evenodd" d="M99.5531 0V11.3991C97.4888 9.9335 95.0379 9.17002 92.504 9.16998C90.2534 9.16998 88.2086 9.69359 86.3887 10.7533C84.5816 11.7786 83.144 13.1914 82.0834 14.9817L82.0793 14.9892C81.0393 16.7937 80.5267 18.8316 80.5267 21.0847C80.5267 23.3091 81.0245 25.3308 82.0342 27.1327C83.0376 28.9234 84.4055 30.3527 86.1325 31.4086L86.14 31.4126C87.8807 32.4481 89.8461 32.9594 92.017 32.9594C94.1044 32.9594 95.9916 32.4745 97.6521 31.4926C98.3477 31.0764 98.9806 30.5988 99.5524 30.063V32.7582H104.44V20.8036V0H99.5531ZM92.504 13.6138C91.1393 13.6138 89.9136 13.9425 88.8121 14.5964C87.7258 15.2574 86.8621 16.15 86.2158 17.2835C85.5811 18.3728 85.2521 19.6368 85.2521 21.0847C85.2521 22.5032 85.5767 23.7653 86.2158 24.8865C86.8599 26.0162 87.7206 26.9052 88.8019 27.5655C89.905 28.1963 91.1339 28.5156 92.504 28.5156C93.9042 28.5155 95.1135 28.1951 96.1542 27.5722C97.2213 26.9007 98.0964 26.0063 98.7047 24.8966L98.7102 24.8865C99.3494 23.7653 99.6746 22.5032 99.6746 21.0847C99.6746 19.6369 99.3484 18.3782 98.7136 17.2889L98.7088 17.2808L98.7047 17.2734C98.0863 16.1451 97.2382 15.2565 96.1542 14.5971L96.1481 14.593C95.1079 13.9455 93.9008 13.6138 92.504 13.6138Z" fill="black"/>
</svg>
