<svg width="218" height="28" viewBox="0 0 218 28" fill="none" xmlns="http://www.w3.org/2000/svg">
<path d="M6 0C8.20914 0 10 1.79086 10 4V24C10 26.2091 8.20914 28 6 28H4C1.79086 28 9.66399e-08 26.2091 0 24V4C0 1.79086 1.79086 3.22128e-08 4 0H6ZM22 12C25.3137 12 28 14.6863 28 18V22C28 25.3137 25.3137 28 22 28H18C14.6863 28 12 25.3137 12 22V18C12 14.6863 14.6863 12 18 12H22ZM40.1025 10.2754C40.7126 9.71221 41.4108 9.23114 42.1953 8.83398C43.4989 8.15126 44.9436 7.81545 46.5166 7.81543C48.3545 7.81545 50.0186 8.26043 51.4912 9.16113C52.9561 10.0346 54.1052 11.2378 54.9326 12.7588L55.0879 13.0469C55.8386 14.5021 56.209 16.121 56.209 17.8906C56.209 19.8024 55.7631 21.5311 54.8604 23.0615C53.9845 24.5846 52.7769 25.797 51.2461 26.6904C49.7263 27.5673 47.9937 28 46.0703 28C44.1897 28 42.4824 27.568 40.9648 26.6924L40.959 26.6885C39.4555 25.7968 38.2518 24.6005 37.3545 23.1064L37.3486 23.0967C36.471 21.5703 36.0241 19.8666 36 18V0H40.1025V10.2754ZM68.8564 7.81543C70.78 7.81543 72.5104 8.24611 74.0303 9.12305C75.5411 9.99479 76.737 11.1966 77.6123 12.7188C78.4919 14.2485 78.9379 15.9863 78.9619 17.917V17.9248C78.9619 18.4353 78.9293 18.9328 78.8672 19.417H62.8623C62.9908 20.0522 63.2037 20.6414 63.501 21.1865C64.0444 22.1186 64.7709 22.8615 65.6855 23.4219C66.6184 23.9572 67.6706 24.2294 68.8564 24.2295C70.0406 24.2295 71.0781 23.9585 71.9844 23.4277C72.7036 22.9886 73.2983 22.4368 73.7734 21.7705H78.2783C78.1021 22.2275 77.8927 22.6701 77.6475 23.0967C76.7715 24.6199 75.5626 25.8204 74.0303 26.6914C72.5105 27.5683 70.7799 28 68.8564 28C66.9115 28 65.1598 27.5697 63.6182 26.6943C62.1075 25.8226 60.9075 24.6187 60.0322 23.0967C59.1519 21.5657 58.7178 19.8363 58.7178 17.9248C58.7178 15.9919 59.1513 14.2509 60.0322 12.7188C60.9075 11.1966 62.1035 9.99479 63.6143 9.12305C65.156 8.24761 66.9114 7.81547 68.8564 7.81543ZM132.979 10.2754C133.587 9.71416 134.283 9.23521 135.064 8.83887C136.37 8.15351 137.817 7.8155 139.393 7.81543C141.23 7.81544 142.895 8.26044 144.367 9.16113C145.832 10.0346 146.981 11.2378 147.809 12.7588L147.965 13.0469C148.716 14.5021 149.086 16.1211 149.086 17.8906C149.086 19.8024 148.639 21.5311 147.736 23.0615C146.861 24.5845 145.654 25.7971 144.123 26.6904C142.603 27.5674 140.87 28 138.946 28C137.066 27.9999 135.359 27.5678 133.842 26.6924L133.835 26.6885C132.331 25.7968 131.128 24.6006 130.23 23.1064L130.225 23.0967C129.347 21.5703 128.901 19.8666 128.877 18V0H132.979V10.2754ZM161.733 7.81543C163.613 7.81548 165.318 8.25875 166.834 9.15527C168.366 10.0253 169.575 11.2254 170.451 12.7471L170.615 13.0361C171.41 14.4934 171.815 16.1244 171.838 17.917V27.8291H167.7V25.542C167.216 25.9966 166.68 26.4028 166.091 26.7559C164.685 27.5888 163.088 28 161.321 28C159.484 28 157.819 27.5661 156.346 26.6875L156.34 26.6846C154.878 25.7887 153.72 24.5759 152.87 23.0566C152.015 21.5278 151.595 19.8121 151.595 17.9248C151.595 16.0133 152.028 14.2839 152.908 12.7529L152.912 12.7461C153.81 11.2271 155.027 10.0282 156.557 9.1582C158.097 8.25913 159.828 7.81543 161.733 7.81543ZM182.381 7.81543C183.977 7.81544 185.392 8.08678 186.606 8.65137C187.73 9.15288 188.666 9.83331 189.398 10.6963L189.542 10.8711C189.873 11.2897 190.034 11.7744 189.978 12.2979C189.939 12.865 189.62 13.2978 189.142 13.583C188.705 13.8707 188.201 13.9513 187.675 13.8643C187.155 13.773 186.702 13.5243 186.342 13.1367C185.827 12.5849 185.251 12.1953 184.611 11.957L184.597 11.9512C183.947 11.6888 183.189 11.5508 182.312 11.5508C181.197 11.5508 180.36 11.7759 179.753 12.1719L179.747 12.1748L179.741 12.1787C179.146 12.5487 178.921 12.9682 178.921 13.4541C178.921 13.8459 179.017 14.1541 179.188 14.4053C179.377 14.6517 179.737 14.9257 180.343 15.1973C180.975 15.4476 181.901 15.6883 183.14 15.9121C184.889 16.2137 186.31 16.6498 187.375 17.2402C188.432 17.7917 189.234 18.4669 189.719 19.2891C190.213 20.0911 190.459 20.9834 190.459 21.9512C190.459 23.1408 190.113 24.2096 189.415 25.1348C188.747 26.0283 187.81 26.7239 186.636 27.2344C185.445 27.7518 184.056 28 182.484 28C181 28 179.55 27.7617 178.139 27.2861L178.127 27.2822C176.727 26.7785 175.576 26.0604 174.699 25.1143C174.312 24.6973 174.136 24.1864 174.203 23.623C174.268 23.0741 174.537 22.616 174.976 22.2734L174.986 22.2656C175.444 21.9244 175.961 21.7428 176.514 21.8115C176.969 21.8655 177.372 22.0404 177.701 22.3389L177.847 22.4844L177.854 22.4932C178.282 22.9966 178.894 23.4235 179.718 23.7598C180.533 24.0699 181.441 24.2295 182.45 24.2295C183.986 24.2294 184.989 23.9714 185.57 23.5576L185.685 23.4707C186.235 23.0358 186.476 22.5524 186.493 22.0088C186.49 21.4694 186.24 20.9909 185.614 20.5576L185.607 20.5518C184.991 20.1116 183.846 19.7197 182.077 19.4268C179.722 19.0327 177.904 18.359 176.709 17.3486L176.704 17.3447C175.535 16.3342 174.921 15.0855 174.921 13.625C174.921 12.3509 175.276 11.2447 176.018 10.3496C176.73 9.48979 177.655 8.85317 178.772 8.43359C179.896 8.02093 181.103 7.81546 182.381 7.81543ZM209.922 7.81543C211.518 7.81546 212.933 8.08668 214.147 8.65137C215.271 9.15289 216.207 9.83331 216.939 10.6963L217.083 10.8711C217.421 11.2989 217.582 11.7962 217.515 12.333C217.466 12.8834 217.151 13.3034 216.683 13.583C216.246 13.8707 215.742 13.9513 215.216 13.8643C214.696 13.773 214.242 13.5245 213.882 13.1367C213.368 12.5851 212.792 12.1953 212.152 11.957L212.137 11.9512C211.487 11.6889 210.729 11.5508 209.853 11.5508C208.737 11.5508 207.9 11.7759 207.293 12.1719L207.287 12.1748L207.282 12.1787C206.687 12.5487 206.461 12.9682 206.461 13.4541C206.461 13.8458 206.557 14.1542 206.728 14.4053C206.917 14.6516 207.277 14.9258 207.883 15.1973C208.515 15.4477 209.441 15.6883 210.68 15.9121C212.421 16.2123 213.837 16.6459 214.9 17.2324L215.098 17.3389C216.065 17.8718 216.804 18.5149 217.26 19.2891C217.754 20.0911 218 20.9834 218 21.9512C218 23.1408 217.654 24.2097 216.956 25.1348C216.288 26.0284 215.351 26.7238 214.177 27.2344C212.986 27.7519 211.596 28 210.024 28C208.54 28 207.091 27.7616 205.68 27.2861L205.668 27.2822C204.268 26.7785 203.117 26.0604 202.24 25.1143C201.853 24.6973 201.677 24.1865 201.744 23.623C201.809 23.0741 202.078 22.616 202.517 22.2734L202.526 22.2656C202.984 21.9244 203.501 21.7429 204.054 21.8115C204.509 21.8655 204.913 22.0402 205.242 22.3389L205.379 22.4756L205.395 22.4932C205.823 22.9964 206.435 23.4236 207.258 23.7598C208.073 24.07 208.981 24.2295 209.99 24.2295C211.528 24.2295 212.532 23.9705 213.113 23.5557C213.742 23.1005 214.013 22.5914 214.033 22.0146C214.032 21.4727 213.782 20.9926 213.154 20.5576L213.147 20.5518C212.531 20.1117 211.387 19.7197 209.618 19.4268C207.263 19.0327 205.445 18.3589 204.25 17.3486L204.244 17.3447C203.075 16.3342 202.461 15.0854 202.461 13.625C202.461 12.351 202.816 11.2447 203.558 10.3496C204.27 9.4898 205.195 8.85318 206.312 8.43359C207.436 8.02083 208.644 7.81543 209.922 7.81543ZM124.41 27.7949H120.272V25.5078C119.789 25.9623 119.253 26.3677 118.664 26.7207C117.258 27.5539 115.66 27.9658 113.894 27.9658C112.056 27.9658 110.392 27.5317 108.919 26.6533L108.912 26.6494C107.45 25.7535 106.293 24.5408 105.443 23.0215C104.589 21.4926 104.167 19.7771 104.167 17.8896C104.167 15.9781 104.601 14.2488 105.481 12.7178L105.484 12.7119C106.382 11.1929 107.599 9.99403 109.129 9.12402C110.669 8.2249 112.4 7.78028 114.306 7.78027C116.185 7.78031 117.89 8.22373 119.406 9.12012C119.707 9.29113 119.996 9.47542 120.272 9.67188V0H124.41V27.7949ZM92.0117 7.78027C93.7014 7.78029 95.232 8.14105 96.5879 8.87598C97.969 9.58931 99.0532 10.6472 99.8379 12.0332C100.657 13.44 101.052 15.1404 101.052 17.1055V27.8291H96.9482V17.1055C96.9482 15.7867 96.6976 14.7757 96.2441 14.0312L96.2393 14.0244L96.2354 14.0156C95.7887 13.2289 95.1776 12.6546 94.3965 12.2764L94.3906 12.2734L94.3857 12.2715C93.5876 11.8648 92.6636 11.6533 91.5996 11.6533C90.6057 11.6533 89.7246 11.853 88.9453 12.2402L88.9395 12.2432C88.1789 12.6109 87.5847 13.1148 87.1426 13.7539L87.1377 13.7607C86.7108 14.3585 86.4913 15.0562 86.4912 15.877V27.8291H82.3877V7.98535H86.459V9.63672C86.4674 9.63068 87.2435 9.07737 87.6748 8.84277C88.9819 8.13207 90.4321 7.78027 92.0117 7.78027ZM197.861 27.8291H193.758V7.98535H197.861V27.8291ZM46.0703 11.5859C44.9381 11.586 43.91 11.8651 42.9746 12.4229C42.0621 12.9588 41.3437 13.7011 40.8213 14.6562C40.3002 15.609 40.0352 16.683 40.0352 17.8906C40.0352 19.1205 40.3 20.2033 40.8184 21.1533C41.3411 22.0884 42.0597 22.834 42.9805 23.3955C43.9144 23.9511 44.9403 24.2295 46.0703 24.2295C47.2524 24.2295 48.2882 23.948 49.1943 23.3955L49.2002 23.3926C50.1431 22.8303 50.8698 22.085 51.3906 21.1533C51.9307 20.2037 52.209 19.1187 52.209 17.8906C52.209 16.6871 51.9336 15.6163 51.3926 14.665L51.3877 14.6562C50.867 13.7043 50.143 12.9646 49.208 12.4277L49.1943 12.4199C48.2882 11.8674 47.2525 11.586 46.0703 11.5859ZM138.946 11.5859C137.814 11.586 136.787 11.8652 135.852 12.4229C134.939 12.9588 134.22 13.7009 133.697 14.6562C133.176 15.609 132.911 16.6831 132.911 17.8906C132.911 19.1204 133.176 20.2034 133.694 21.1533C134.217 22.0883 134.936 22.834 135.856 23.3955C136.79 23.9511 137.816 24.2294 138.946 24.2295C140.128 24.2295 141.164 23.9479 142.07 23.3955L142.076 23.3926C143.019 22.8303 143.746 22.085 144.267 21.1533C144.807 20.2037 145.086 19.1187 145.086 17.8906C145.086 16.6872 144.81 15.6163 144.27 14.665L144.265 14.6562C143.744 13.7043 143.02 12.9646 142.085 12.4277L142.07 12.4199C141.164 11.8675 140.128 11.586 138.946 11.5859ZM161.733 11.5859C160.578 11.5859 159.541 11.8643 158.608 12.4189C157.689 12.9798 156.957 13.7375 156.41 14.6992C155.873 15.6234 155.595 16.6964 155.595 17.9248C155.595 19.1283 155.869 20.1992 156.41 21.1504C156.955 22.1089 157.684 22.8636 158.6 23.4238C159.533 23.9589 160.574 24.2295 161.733 24.2295C162.919 24.2294 163.942 23.9572 164.823 23.4287L164.992 23.3223C165.829 22.7749 166.492 22.0566 166.982 21.1592L166.987 21.1504C167.528 20.1992 167.804 19.1282 167.804 17.9248C167.804 16.6965 167.527 15.6282 166.99 14.7041L166.985 14.6973L166.982 14.6904C166.459 13.7332 165.741 12.9795 164.823 12.4199L164.818 12.416C163.938 11.8666 162.916 11.586 161.733 11.5859ZM114.306 11.5508C113.151 11.5508 112.113 11.83 111.181 12.3848C110.261 12.9456 109.529 13.7033 108.982 14.665C108.445 15.5891 108.167 16.6615 108.167 17.8896C108.167 19.0932 108.441 20.1649 108.982 21.1162C109.528 22.0746 110.257 22.8285 111.172 23.3887C112.106 23.9239 113.146 24.1953 114.306 24.1953C115.491 24.1953 116.515 23.923 117.396 23.3945L117.565 23.2881C118.402 22.7407 119.064 22.0215 119.555 21.124L119.56 21.1162C120.101 20.1649 120.376 19.0932 120.376 17.8896C120.376 16.6614 120.1 15.5931 119.562 14.6689L119.559 14.6621L119.555 14.6562C119.031 13.699 118.313 12.9453 117.396 12.3857L117.391 12.3818C116.51 11.8324 115.488 11.5508 114.306 11.5508ZM68.8564 11.5859C67.6743 11.586 66.6243 11.8672 65.6924 12.4229C64.7806 12.9584 64.0492 13.6999 63.5039 14.6553C63.1982 15.2143 62.9814 15.8205 62.8535 16.4746H74.791C74.6633 15.8206 74.4463 15.2152 74.1406 14.6562C73.6181 13.7008 72.9021 12.9608 71.9893 12.4248L71.9814 12.4199C71.0751 11.8673 70.0388 11.5859 68.8564 11.5859ZM195.792 0.648438C196.466 0.648471 197.064 0.885485 197.559 1.34277C198.102 1.82309 198.376 2.45228 198.376 3.18164C198.376 3.88303 198.119 4.50466 197.63 5.01953L197.624 5.02539L197.619 5.03125C197.119 5.52811 196.499 5.78414 195.792 5.78418C195.085 5.78414 194.466 5.52798 193.966 5.03125L193.959 5.02539L193.953 5.01953C193.464 4.50468 193.208 3.88295 193.208 3.18164C193.208 2.46369 193.461 1.83811 193.979 1.35449L193.99 1.34277C194.505 0.887987 195.113 0.648472 195.792 0.648438Z" fill="black"/>
</svg>
